<svg xmlns="http://www.w3.org/2000/svg" width="1320" height="260" viewBox="0 0 1320 260"><defs><marker id="arrow" markerWidth="10" markerHeight="10" refX="8" refY="3" orient="auto" markerUnits="strokeWidth"><path d="M0,0 L0,6 L9,3 z" fill="#0f766e"/></marker></defs><rect width="100%" height="100%" fill="#f8fafc"/><text x="40" y="42" font-family="Arial, sans-serif" font-size="26" font-weight="700" fill="#111827">Method Overview: Batting Video to Statcast-Style Targets</text><rect x="40" y="95" width="160" height="76" rx="10" fill="#ffffff" stroke="#94a3b8" stroke-width="2"/><text x="120" y="125" text-anchor="middle" font-family="Arial, sans-serif" font-size="15" fill="#111827">Statcast BBE</text><text x="120" y="145" text-anchor="middle" font-family="Arial, sans-serif" font-size="15" fill="#111827">Universe</text><rect x="250" y="95" width="160" height="76" rx="10" fill="#ffffff" stroke="#94a3b8" stroke-width="2"/><text x="330" y="125" text-anchor="middle" font-family="Arial, sans-serif" font-size="15" fill="#111827">Official Video</text><text x="330" y="145" text-anchor="middle" font-family="Arial, sans-serif" font-size="15" fill="#111827">Sources</text><rect x="460" y="95" width="160" height="76" rx="10" fill="#ffffff" stroke="#94a3b8" stroke-width="2"/><text x="540" y="125" text-anchor="middle" font-family="Arial, sans-serif" font-size="15" fill="#111827">Contact-Aligned</text><text x="540" y="145" text-anchor="middle" font-family="Arial, sans-serif" font-size="15" fill="#111827">Clips</text><rect x="670" y="95" width="160" height="76" rx="10" fill="#ffffff" stroke="#94a3b8" stroke-width="2"/><text x="750" y="125" text-anchor="middle" font-family="Arial, sans-serif" font-size="15" fill="#111827">YOLO / Tracking</text><text x="750" y="145" text-anchor="middle" font-family="Arial, sans-serif" font-size="15" fill="#111827">Pose / Bat Line</text><rect x="880" y="95" width="160" height="76" rx="10" fill="#ffffff" stroke="#94a3b8" stroke-width="2"/><text x="960" y="125" text-anchor="middle" font-family="Arial, sans-serif" font-size="15" fill="#111827">Sequence TCN</text><text x="960" y="145" text-anchor="middle" font-family="Arial, sans-serif" font-size="15" fill="#111827">VideoMAE</text><text x="960" y="165" text-anchor="middle" font-family="Arial, sans-serif" font-size="15" fill="#111827">Context CatBoost</text><rect x="1090" y="95" width="160" height="76" rx="10" fill="#ffffff" stroke="#94a3b8" stroke-width="2"/><text x="1170" y="125" text-anchor="middle" font-family="Arial, sans-serif" font-size="15" fill="#111827">Late Fusion</text><text x="1170" y="145" text-anchor="middle" font-family="Arial, sans-serif" font-size="15" fill="#111827">Statcast Heads</text><line x1="205" y1="133" x2="245" y2="133" stroke="#0f766e" stroke-width="3" marker-end="url(#arrow)"/><line x1="415" y1="133" x2="455" y2="133" stroke="#0f766e" stroke-width="3" marker-end="url(#arrow)"/><line x1="625" y1="133" x2="665" y2="133" stroke="#0f766e" stroke-width="3" marker-end="url(#arrow)"/><line x1="835" y1="133" x2="875" y2="133" stroke="#0f766e" stroke-width="3" marker-end="url(#arrow)"/><line x1="1045" y1="133" x2="1085" y2="133" stroke="#0f766e" stroke-width="3" marker-end="url(#arrow)"/></svg>